<?xml version="1.0" encoding="utf-8"?>
<!-- Generator: Adobe Illustrator 16.0.0, SVG Export Plug-In . SVG Version: 6.00 Build 0)  -->
<!DOCTYPE svg PUBLIC "-//W3C//DTD SVG 1.0//EN" "http://www.w3.org/TR/2001/REC-SVG-20010904/DTD/svg10.dtd">
<svg version="1.0" id="Capa_1" xmlns="http://www.w3.org/2000/svg" xmlns:xlink="http://www.w3.org/1999/xlink" x="0px" y="0px"
	 width="512px" height="512px" viewBox="0 0 512 512" enable-background="new 0 0 512 512" xml:space="preserve">
<g>
	<g>
		<path fill="#AE285D" d="M16.122,121.079c-16.563,56.115-43.931,197.774,59.245,300.95
			c69.316,69.316,157.399,83.871,219.091,83.871c35.301,0,65.603-4.649,84.804-8.53c10.646-2.149,18.273-8.251,20.914-16.808
			c2.718-8.74-0.201-18.382-8.024-26.447l-85.373-88.555c-5.208-5.409-8.636-10.863-7.892-12.323
			c0.438-0.854,0.822-1.765,1.102-2.743c5.682-19.332,15.05-68.199-20.914-104.157c-19.059-19.062-45.248-29.14-75.72-29.14
			c-11.978,0-22.288,1.565-28.798,2.897c-1.062,0.207-2.054,0.52-2.993,0.914c-1.59,0.664-6.988-2.937-12.193-8.339L61.065,110.735
			c-6.11-6.349-13.53-9.833-20.902-9.833C29.014,100.904,19.793,108.625,16.122,121.079z M264.664,260.75
			c18.975,18.983,21.816,43.026,19.979,62.142c-0.707,7.483-6.329,9.029-11.526,3.626l-75.375-78.192
			c-5.208-5.415-6.079-10.239-1.919-10.497c2.53-0.153,5.035-0.232,7.534-0.232C228.676,237.58,249.289,245.372,264.664,260.75z
			 M377.497,468.257c2.868,2.98,3.496,5.375,3.209,6.275c-0.202,0.638-1.593,2.062-5.463,2.84
			c-18.295,3.714-47.146,8.129-80.769,8.129c-57.845,0-140.299-13.513-204.683-77.9c-95.422-95.45-69.632-228.146-54.1-280.754
			c0.272-0.926,1.752-5.549,4.472-5.549c1.725,0,4.052,1.332,6.213,3.592L377.497,468.257z"/>
		<path fill="#AE285D" d="M365.778,301.907c2.43,1.312,5.208,1.624,7.901,0.829c2.604-0.77,4.824-2.569,6.162-4.957
			c24.104-44.058,17.533-98.609-16.336-135.731c-30.957-33.938-79.219-46.747-122.986-32.688c-4.148,1.308-8.269,2.924-12.319,4.761
			c-5.235,2.368-7.547,8.582-5.182,13.733c0.489,1.033,1.048,1.919,1.809,2.761c3.046,3.288,7.831,4.296,11.939,2.422
			c3.251-1.461,6.665-2.793,10.105-3.907c36-11.571,75.768-1.031,101.288,26.964c27.898,30.568,33.301,75.453,13.487,111.759
			C358.935,292.721,360.831,299.207,365.778,301.907z"/>
		<path fill="#AE285D" d="M424.248,320.688c5.192,2.396,11.363,0.079,13.783-5.069c29.872-64.98,18.005-141.156-30.196-194.006
			C365,74.712,299.86,54.131,237.783,67.997c-6.935,1.564-13.878,3.535-20.626,5.917c-2.609,0.922-4.702,2.785-5.887,5.313
			c-1.211,2.504-1.332,5.333-0.42,7.971c0.459,1.303,1.193,2.501,2.107,3.536c2.814,3.072,7.179,4.174,11.134,2.757
			c5.983-2.093,12.113-3.845,18.219-5.236c54.823-12.236,112.34,5.903,150.168,47.344c42.547,46.642,53.033,113.905,26.641,171.295
			C416.838,311.924,419.162,318.295,424.248,320.688z"/>
		<path fill="#AE285D" d="M476.611,344.77c5.208,2.42,11.404,0.167,13.8-5.043c39.566-86.126,23.887-187.016-39.978-257.016
			c-61.415-67.238-157.24-93.145-244.167-65.974c-2.774,0.922-5.576,1.834-8.32,2.84c-2.652,0.896-4.746,2.788-5.956,5.318
			c-1.184,2.499-1.32,5.288-0.366,7.94c0.477,1.277,1.184,2.475,2.093,3.509c2.8,3.072,7.179,4.174,11.148,2.783
			c2.53-0.948,5.086-1.752,7.642-2.551c79.242-24.806,166.607-1.172,222.578,60.153c58.208,63.811,72.525,155.755,36.438,234.28
			C469.198,336.072,471.472,342.434,476.611,344.77z"/>
	</g>
</g>
</svg>
